PathFileType	4	(X/Y/Z)	TVC_36_BWA_02_walk_RCNL2025.trc
DataRate	CameraRate	NumFrames	NumMarkers	Units	OrigDataRate	OrigDataStartFrame	OrigNumFrames
100	100	11	27	mm	100	366	487
Frame#	Time	R_Shoulder			L_Shoulder			C7			J_Notch			R_Elbow			L_Elbow			R_Wrist			L_Wrist			R_Asis			L_Asis			R_Psis			L_Psis			Sacral			Thoracic			Sternum			R_Thigh_Lateral			R_Knee_Lateral			R_Shank_Lateral			R_Ankle_Lateral			R_Heel			R_Toe			L_Thigh_Lateral			L_Knee_Lateral			L_Shank_Lateral			L_Ankle_Lateral			L_Heel			L_Toe		
		X1	Y1	Z1	X2	Y2	Z2	X3	Y3	Z3	X4	Y4	Z4	X5	Y5	Z5	X6	Y6	Z6	X7	Y7	Z7	X8	Y8	Z8	X9	Y9	Z9	X10	Y10	Z10	X11	Y11	Z11	X12	Y12	Z12	X13	Y13	Z13	X14	Y14	Z14	X15	Y15	Z15	X16	Y16	Z16	X17	Y17	Z17	X18	Y18	Z18	X19	Y19	Z19	X20	Y20	Z20	X21	Y21	Z21	X22	Y22	Z22	X23	Y23	Z23	X24	Y24	Z24	X25	Y25	Z25	X26	Y26	Z26	X27	Y27	Z27
366	3.65000000	966.521790	1387.538574	603.539978	898.197021	1376.595581	267.933868	899.492493	1430.951660	447.258484	1060.968994	1320.796265	419.742950	944.420288	1126.079712	736.699097	874.733032	1098.611450	136.001190	1159.427368	1106.492859	689.866882	1055.336609	997.283722	199.883614	1033.606934	892.742737	547.718567	977.870972	909.800171	294.160736	843.172180	932.488098	513.090149	829.367004	926.047302	428.666992	836.269592	929.267700	470.878571	861.610779	1151.435913	462.290466	1105.242676	1169.367310	396.028625	1058.221558	650.879822	654.599731	1118.674072	474.106598	597.484070	976.877014	331.845032	649.462219	868.438599	168.835495	589.769958	827.082642	177.077271	536.530090	955.305115	74.798996	573.167297	921.468262	673.650085	208.205124	929.358582	474.619720	270.467499	886.094604	276.897491	221.212448	956.306946	67.083290	268.782898	911.048401	49.739628	310.808594	1082.686523	54.786175	315.693665
367	3.66000000	973.972595	1387.369873	603.783020	905.431763	1376.665161	267.796631	906.517700	1431.118530	447.417450	1067.682861	1320.150269	419.959564	948.825195	1124.772339	735.205200	882.813049	1099.301758	134.502594	1163.429626	1095.401978	690.245911	1062.217529	995.684814	197.882454	1037.703247	892.356201	547.034119	980.570618	909.956909	293.560608	846.881165	933.248169	513.548523	832.654785	926.497498	428.775543	839.767975	929.872833	471.162033	867.149719	1152.111572	462.596771	1110.810791	1168.414307	396.060730	1064.731567	652.952515	653.797119	1127.847534	477.158630	596.219727	991.872314	329.507324	649.348206	892.420105	160.287003	590.574585	850.552307	165.238831	537.214111	985.728271	73.493317	575.170166	923.237610	673.917786	208.182602	931.311157	474.869965	270.257599	887.026672	277.257568	221.275742	956.403870	67.087303	268.784393	911.112244	49.851707	310.817596	1082.678467	54.746254	315.717194
368	3.67000000	981.565063	1387.298462	604.224182	912.618225	1376.868408	267.870941	913.487488	1431.369507	447.820221	1074.331177	1319.598755	420.282684	953.715698	1123.603516	733.980652	890.796570	1100.069946	133.324677	1167.386414	1084.429504	690.630432	1069.063660	994.226776	196.113609	1041.916138	892.134399	546.455383	983.427368	910.086365	293.042999	850.557556	934.160950	514.013184	836.099060	926.920593	428.966187	843.328308	930.540771	471.489685	872.716248	1152.812988	462.997528	1116.312378	1167.572632	396.190887	1070.836670	654.807556	652.865967	1135.909058	479.868774	594.800659	1006.774170	326.402863	649.228821	917.403137	151.031601	591.385376	875.124573	152.707062	537.983337	1016.756226	71.826881	576.732849	925.274780	674.199402	208.240219	933.386719	475.118164	270.143463	888.059326	277.647034	221.406219	956.512390	67.103607	268.833130	911.182800	49.973587	310.847412	1082.677979	54.699863	315.771027
369	3.68000000	989.233154	1387.287720	604.845093	919.721191	1377.182617	268.150330	920.375061	1431.663086	448.446411	1080.897949	1319.128052	420.708405	959.079834	1122.559570	733.054810	898.607117	1100.902344	132.451202	1171.302795	1073.690247	691.016418	1075.857666	993.009857	194.592049	1046.296387	892.050171	545.992859	986.490845	910.167908	292.636658	854.282715	935.166748	514.475342	839.749573	927.295776	429.267700	847.016144	931.231262	471.871521	878.282227	1153.506348	463.507233	1121.763428	1166.837891	396.409515	1076.505371	656.317627	651.861511	1142.827393	482.108856	593.260132	1021.549072	322.589386	649.095215	943.199402	141.372696	592.140442	900.610596	139.859573	538.772827	1048.068481	69.896408	577.791870	927.540161	674.495544	208.365067	935.517822	475.348602	270.125793	889.147095	278.049866	221.595428	956.623779	67.126350	268.914185	911.255066	50.097919	310.889648	1082.680176	54.651382	315.839661
370	3.69000000	996.907837	1387.295898	605.628113	926.698120	1377.576538	268.628662	927.157043	1431.957031	449.275116	1087.367798	1318.721436	421.233307	964.886414	1121.610596	732.445679	906.175903	1101.778687	131.860367	1175.188110	1063.287170	691.405914	1082.584778	992.116791	193.325607	1050.888306	892.066223	545.652710	989.789062	910.199585	292.369354	858.148132	936.190552	514.944031	843.634705	927.621155	429.707977	850.891418	931.905853	472.326004	883.817566	1154.159912	464.148651	1127.179688	1166.201904	396.704437	1081.740234	657.378357	650.841553	1148.605957	483.773132	591.626160	1036.137085	318.168457	648.928955	969.532532	131.621964	592.771179	926.722229	127.079506	539.511963	1079.298462	67.786835	578.281921	929.992249	674.806885	208.551300	937.664978	475.552094	270.203888	890.262085	278.454559	221.833313	956.731445	67.150047	269.012482	911.324768	50.218338	310.935669	1082.681641	54.603733	315.910187
371	3.70000000	1004.522827	1387.282104	606.557861	933.501953	1378.014526	269.301117	933.813049	1432.213013	450.287262	1093.727051	1318.361816	421.854218	971.087585	1120.716064	732.158325	913.447510	1102.674316	131.528519	1179.057007	1053.306335	691.808655	1089.233887	991.607483	192.315887	1055.726074	892.139709	545.438354	993.331970	910.195496	292.265839	862.245178	937.150635	515.446289	847.764282	927.910828	430.311829	855.004730	932.530731	472.879059	889.297607	1154.745605	464.948608	1132.575195	1165.654297	397.062714	1086.579956	657.918213	649.862549	1153.291626	484.788849	589.918640	1050.449951	313.280518	648.701904	996.035400	122.083984	593.208252	953.071899	114.736664	540.130127	1110.029541	65.567268	578.145325	932.600647	675.132751	208.803787	939.814026	475.725555	270.377655	891.391724	278.854523	222.110687	956.830933	67.170532	269.114746	911.388550	50.329483	310.977570	1082.680664	54.558376	315.973541
372	3.71000000	1012.019531	1387.211792	607.622620	940.084900	1378.460693	270.164917	940.325684	1432.400024	451.467133	1099.964722	1318.034424	422.568024	977.623596	1119.832031	732.184326	920.383301	1103.563110	131.433533	1182.929993	1043.814301	692.242676	1095.797668	991.516052	191.559952	1060.830566	892.226990	545.351990	997.115845	910.179504	292.346100	866.655212	937.967957	516.023621	852.134949	928.188477	431.099365	859.395081	933.078217	473.561493	894.710327	1155.239380	465.933075	1137.961426	1165.185303	397.473267	1091.093628	657.903015	648.975647	1156.979492	485.125092	588.148438	1064.371948	308.095825	648.377991	1022.257690	113.040337	593.387329	979.184143	103.167267	540.561279	1139.798950	63.290623	577.343811	935.353149	675.470154	209.138885	941.971863	475.870850	270.649231	892.534973	279.248016	222.421600	956.919556	67.185776	269.210876	911.443542	50.427368	311.009338	1082.676880	54.515499	316.024933
373	3.72000000	1019.350769	1387.062378	608.814270	946.403442	1378.882202	271.219116	946.680908	1432.497559	452.803131	1106.072998	1317.728638	423.372284	984.428955	1118.918823	732.502930	926.963867	1104.420288	131.557404	1186.832825	1034.855957	692.734131	1102.272766	991.850128	191.052109	1066.205933	892.288574	545.396362	1001.128174	910.177979	292.624481	871.439575	938.575928	516.725708	856.734009	928.480591	432.084930	864.086792	933.528259	474.405319	900.062378	1155.622070	467.122589	1143.346313	1164.786743	397.929718	1095.369507	657.335815	648.222107	1159.813965	484.797546	586.319214	1077.763672	302.802032	647.916687	1047.685547	104.734085	593.256104	1004.519653	92.654221	540.749390	1168.113281	60.996292	575.872375	938.256287	675.814026	209.582230	944.160156	475.993713	271.023163	893.698608	279.637878	222.764877	956.995789	67.196419	269.295349	911.487549	50.510052	311.028290	1082.671021	54.474243	316.063965
374	3.73000000	1026.483398	1386.825928	610.128052	952.422668	1379.252319	272.464020	952.869385	1432.496704	454.287567	1112.047852	1317.440430	424.265625	991.438049	1117.947266	733.083008	933.189209	1105.224854	131.887650	1190.794434	1026.455536	693.316132	1108.659241	992.592255	190.785660	1071.838867	892.293030	545.574829	1005.350403	910.213562	293.108826	876.632507	938.928528	517.603088	861.543030	928.809814	433.276489	869.087769	933.869171	475.439789	905.380676	1155.879761	468.528778	1148.735107	1164.453979	398.432526	1099.500854	656.253235	647.629578	1161.982666	483.869080	584.431152	1090.469971	297.590149	647.279480	1071.773560	97.355919	592.781372	1028.511841	83.410248	540.654663	1194.475098	58.714844	573.769409	941.330383	676.158142	210.164200	946.409424	476.102386	271.506226	894.894348	280.030731	223.144730	957.059326	67.206024	269.368256	911.519470	50.578468	311.036743	1082.665161	54.432945	316.094086
375	3.74000000	1033.398804	1386.509888	611.561218	958.120728	1379.552856	273.900421	958.888000	1432.401978	455.915436	1117.890015	1317.172485	425.248077	998.591187	1116.904175	733.886597	939.077576	1105.961304	132.417923	1194.843567	1018.618256	694.026886	1114.959961	993.703033	190.754051	1077.698608	892.220093	545.890564	1009.759705	910.300964	293.800262	882.237183	939.007141	518.699097	866.539124	929.190857	434.675171	874.388153	934.098999	476.687134	910.707947	1156.006104	470.152405	1154.130249	1164.186157	398.989929	1103.574585	654.721191	647.209412	1163.706543	482.445343	582.486816	1102.334595	292.640167	646.438965	1093.988159	91.033745	591.955750	1050.612671	75.566322	540.260254	1218.418457	56.473488	571.121948	944.601685	676.496216	210.913971	948.754456	476.206879	272.105896	896.136475	280.436279	223.570541	957.110657	67.221054	269.436218	911.539429	50.637211	311.043457	1082.662598	54.389286	316.121948
376	3.75000000	1040.092773	1386.136963	613.111511	963.491272	1379.775513	275.528046	964.740906	1432.229858	457.682709	1123.604858	1316.934814	426.321136	1005.838440	1115.794312	734.872986	944.661926	1106.620239	133.147705	1199.005310	1011.333374	694.906982	1121.179382	995.125488	190.951607	1083.742432	892.063599	546.345215	1014.328979	910.445618	294.693085	888.225586	938.823425	520.042786	871.695068	929.629150	436.275330	879.960327	934.226288	478.159058	916.093018	1156.005005	471.983887	1159.532959	1163.987305	399.617279	1107.663818	652.830566	646.956360	1165.222168	480.665070	580.498352	1113.217163	288.107361	645.389221	1113.856323	85.827271	590.803589	1070.342407	69.167473	539.578552	1239.549561	54.300999	568.063416	948.093689	676.822876	211.853836	951.230286	476.317810	272.828827	897.441040	280.865967	224.056259	957.151184	67.250473	269.513123	911.549927	50.694920	311.065216	1082.668213	54.340416	316.156555
